Coordinates
version=1
nRows=18
nColumns=63
inDegrees=yes

Units are S.I. units (second, meters, Newtons, ...)
If the header above contains a line with 'inDegrees', this indicates whether rotational values are in degrees (yes) or radians (no).

endheader
time	pelvis_tilt	pelvis_list	pelvis_rotation	pelvis_tx	pelvis_ty	pelvis_tz	hip_flexion_r	hip_adduction_r	hip_rotation_r	knee_angle_r	knee_angle_r_beta	ankle_angle_r	subtalar_angle_r	mtp_angle_r	hip_flexion_l	hip_adduction_l	hip_rotation_l	knee_angle_l	knee_angle_l_beta	ankle_angle_l	subtalar_angle_l	mtp_angle_l	L5_S1_Flex_Ext	L5_S1_Lat_Bending	L5_S1_axial_rotation	L4_L5_Flex_Ext	L4_L5_Lat_Bending	L4_L5_axial_rotation	L3_L4_Flex_Ext	L3_L4_Lat_Bending	L3_L4_axial_rotation	L2_L3_Flex_Ext	L2_L3_Lat_Bending	L2_L3_axial_rotation	L1_L2_Flex_Ext	L1_L2_Lat_Bending	L1_L2_axial_rotation	L1_T12_Flex_Ext	L1_T12_Lat_Bending	L1_T12_axial_rotation	Abs_r3	Abs_r2	Abs_r1	Abs_t1	Abs_t2	neck_flexion	neck_bending	neck_rotation	arm_flex_r	arm_add_r	arm_rot_r	elbow_flex_r	pro_sup_r	wrist_flex_r	wrist_dev_r	arm_flex_l	arm_add_l	arm_rot_l	elbow_flex_l	pro_sup_l	wrist_flex_l	wrist_dev_l
2.700000	-5.843105	-7.493592	76.795607	0.233571	0.355172	0.975755	7.983778	-2.379438	-9.020559	10.871733	0.189748	29.632327	8.686800	0.000000	9.039347	1.381473	1.933282	8.423593	0.147019	33.982700	0.851585	0.000000	0.170441	-0.189975	0.803141	0.316526	-0.252667	0.853337	0.280017	-0.461906	0.853337	0.194797	-0.461906	0.702748	0.158271	-0.387398	0.652552	0.097390	-0.294272	0.602356	1.217443	-2.149039	4.466828	0.000000	0.000000	21.076111	-4.160664	-17.842678	-14.367102	-15.408657	7.521037	105.638661	79.528501	5.169989	17.802167	-3.777949	-21.303073	15.948216	106.881199	77.102125	-2.330433	19.515406
2.716667	-5.702045	-7.451838	76.700181	0.233854	0.355366	0.975400	7.811530	-2.204757	-8.831582	10.630296	0.185534	29.529178	8.638878	0.000000	8.966105	1.239127	2.063402	8.489510	0.148170	33.915349	0.577597	0.000000	0.163657	-0.169961	0.855047	0.303928	-0.226048	0.908488	0.268872	-0.413243	0.908488	0.187044	-0.413243	0.748167	0.151972	-0.346584	0.694726	0.093514	-0.263270	0.641286	1.168987	-1.922632	4.755518	0.000000	0.000000	20.702287	-4.103195	-18.054395	-14.399368	-15.160027	6.550152	106.746918	80.238969	3.450224	15.688367	-3.587818	-21.427813	15.779068	107.553252	77.554479	-3.324385	18.457383
2.733333	-5.543057	-7.382026	76.570040	0.234122	0.355662	0.975019	7.637205	-2.028521	-8.656496	10.428623	0.182014	29.458986	8.700189	0.000000	8.873725	1.081076	2.100716	8.566461	0.149513	33.889262	0.387086	0.000000	0.156236	-0.147746	0.905364	0.290147	-0.196502	0.961949	0.256681	-0.359230	0.961949	0.178563	-0.359230	0.792193	0.145081	-0.301284	0.735608	0.089274	-0.228859	0.679023	1.115981	-1.671333	5.035362	0.000000	0.000000	20.259344	-4.082964	-18.283621	-14.212085	-14.901606	5.804353	107.243147	80.915251	1.731761	13.489965	-3.310879	-21.547371	15.817287	107.830001	77.940567	-4.142461	17.436256
2.750000	-5.374894	-7.287831	76.394906	0.234405	0.356039	0.974602	7.462922	-1.852346	-8.449514	10.265973	0.179175	29.416680	8.815106	0.000000	8.757593	0.912472	2.019500	8.645131	0.150886	33.900221	0.301595	0.000000	0.149382	-0.124245	0.947930	0.277416	-0.165246	1.007175	0.245419	-0.302090	1.007175	0.170728	-0.302090	0.829439	0.138716	-0.253361	0.770193	0.085357	-0.192456	0.710947	1.067017	-1.405486	5.272101	0.000000	0.000000	19.766192	-4.078882	-18.449112	-13.828316	-14.649833	5.319196	107.206801	81.498404	0.134463	11.298781	-3.026905	-21.671095	15.982471	107.800817	78.101353	-4.787182	16.610176
2.766667	-5.207657	-7.180160	76.178487	0.234690	0.356463	0.974140	7.298341	-1.689320	-8.259574	10.144940	0.177063	29.414845	9.036314	0.000000	8.628179	0.738404	1.784474	8.728139	0.152335	33.954985	0.370087	0.000000	0.144043	-0.100314	0.980100	0.267502	-0.133417	1.041357	0.236648	-0.243902	1.041357	0.164627	-0.243902	0.857588	0.133758	-0.204559	0.796332	0.082306	-0.155386	0.735075	1.028885	-1.134767	5.451024	0.000000	0.000000	19.265182	-4.093269	-18.554135	-13.291828	-14.427319	5.104826	106.749815	81.972158	-1.312075	9.192079	-2.790668	-21.803422	16.212985	107.538116	78.095534	-5.269822	15.907519
2.783333	-5.030884	-7.052434	75.942033	0.234964	0.356927	0.973583	7.119094	-1.531711	-8.115393	10.055105	0.175495	29.456067	9.364143	0.000000	8.476600	0.551117	1.388465	8.832182	0.154151	34.079076	0.619390	0.000000	0.139258	-0.074664	0.992664	0.258616	-0.099304	1.054706	0.228787	-0.181539	1.054706	0.159158	-0.181539	0.868581	0.129315	-0.152256	0.806540	0.079572	-0.115655	0.744498	0.994707	-0.844619	5.520900	0.000000	0.000000	18.741632	-4.115568	-18.527320	-12.598313	-14.311551	5.247206	105.938389	82.286206	-2.516829	7.143309	-2.629218	-21.950435	16.446972	107.110206	77.985353	-5.526982	15.339184
2.800000	-4.872043	-6.932803	75.695215	0.235260	0.357373	0.972921	6.955329	-1.393915	-7.988195	9.993441	0.174418	29.517618	9.719233	0.000000	8.321910	0.372806	0.869803	8.929956	0.155857	34.227736	1.010575	0.000000	0.138922	-0.050973	0.982306	0.257993	-0.067794	1.043701	0.228235	-0.123935	1.043701	0.158774	-0.123935	0.859518	0.129003	-0.103944	0.798124	0.079380	-0.078957	0.736730	0.992308	-0.576614	5.463293	0.000000	0.000000	18.252714	-4.121372	-18.407524	-11.825978	-14.232747	5.624260	104.904818	82.468131	-3.370932	5.450419	-2.627393	-22.090487	16.540203	106.664279	77.910655	-5.761130	15.124710
2.816667	-4.742314	-6.825139	75.441139	0.235580	0.357770	0.972156	6.809894	-1.286062	-7.880475	9.957658	0.173794	29.602413	10.102890	0.000000	8.164926	0.219896	0.305978	9.015167	0.157344	34.385948	1.444257	0.000000	0.142449	-0.030849	0.958428	0.264542	-0.041029	1.018329	0.234030	-0.075006	1.018329	0.162805	-0.075006	0.838624	0.132278	-0.062907	0.778723	0.081395	-0.047785	0.718821	1.017500	-0.348969	5.330487	0.000000	0.000000	17.814553	-4.138097	-18.284331	-11.051567	-14.196179	6.148534	103.752305	82.496734	-3.819904	4.072162	-2.758932	-22.245383	16.537573	106.238672	78.003027	-6.028976	15.018811
2.833333	-4.661068	-6.728215	75.176108	0.235961	0.358088	0.971339	6.691103	-1.228705	-7.812670	9.953044	0.173713	29.714106	10.550398	0.000000	8.017823	0.094571	-0.534537	9.102149	0.158862	34.609129	2.238263	0.000000	0.148467	-0.017661	0.931331	0.275719	-0.023489	0.989540	0.243917	-0.042940	0.989540	0.169683	-0.042940	0.814915	0.137867	-0.036014	0.756707	0.084834	-0.027356	0.698499	1.060488	-0.199782	5.179786	0.000000	0.000000	17.453914	-4.133106	-18.187745	-10.359106	-14.157739	6.696106	102.611779	82.346986	-3.924602	3.050222	-2.989384	-22.427683	16.448107	105.884637	78.143599	-6.344430	15.043174
2.850000	-4.630148	-6.647271	74.901142	0.236391	0.358310	0.970471	6.598970	-1.215532	-7.722605	9.964004	0.173905	29.837355	10.955348	0.000000	7.856209	0.028304	-1.211851	9.121102	0.159193	34.751147	2.793698	0.000000	0.157050	-0.011320	0.903883	0.291658	-0.015055	0.960376	0.258017	-0.027522	0.960376	0.179492	-0.027522	0.790898	0.145837	-0.023083	0.734405	0.089738	-0.017534	0.677912	1.121792	-0.128049	5.027126	0.000000	0.000000	17.157430	-4.154312	-18.162141	-9.793860	-14.121211	7.210971	101.600732	82.246709	-3.806308	2.284286	-3.339823	-22.642895	16.266367	105.633283	78.435842	-6.656629	14.981051
2.866667	-4.659890	-6.587139	74.590197	0.236897	0.358409	0.969613	6.550591	-1.252563	-7.600962	9.993320	0.174416	29.971317	11.339553	0.000000	7.684658	0.025776	-1.723597	9.055420	0.158047	34.795408	3.090963	0.000000	0.167393	-0.013372	0.888674	0.310866	-0.017785	0.944216	0.275011	-0.032513	0.944216	0.191314	-0.032513	0.777589	0.155441	-0.027268	0.722047	0.095649	-0.020713	0.666505	1.195674	-0.151267	4.942536	0.000000	0.000000	16.961063	-4.178578	-18.212510	-9.403772	-14.058551	7.617577	100.815794	82.258755	-3.639924	1.715333	-3.765822	-22.902818	16.039245	105.536206	78.664890	-6.969978	15.006173
2.883333	-4.755029	-6.544042	74.240612	0.237469	0.358392	0.968823	6.549998	-1.347419	-7.466013	10.043737	0.175296	30.114142	11.723714	0.000000	7.504261	0.092600	-2.059019	8.899272	0.155322	34.727541	3.114210	0.000000	0.176995	-0.024799	0.892546	0.328697	-0.032983	0.948331	0.290784	-0.060297	0.948331	0.202287	-0.060297	0.780978	0.164357	-0.050571	0.725194	0.101135	-0.038414	0.669410	1.264255	-0.280536	4.964076	0.000000	0.000000	16.897144	-4.193743	-18.339941	-9.200719	-13.962263	7.882505	100.311661	82.406514	-3.558128	1.291337	-4.182589	-23.232684	15.872146	105.585944	78.568152	-7.183616	15.202278
2.900000	-4.902708	-6.526215	73.851626	0.238075	0.358269	0.968154	6.606220	-1.484655	-7.318475	10.111532	0.176480	30.251098	12.100681	0.000000	7.328412	0.213923	-2.209359	8.660353	0.151152	34.543979	2.849623	0.000000	0.185576	-0.043747	0.920845	0.344633	-0.058184	0.978398	0.304882	-0.106367	0.978398	0.212094	-0.106367	0.805739	0.172326	-0.089209	0.748187	0.106038	-0.067764	0.690634	1.325549	-0.494876	5.121464	0.000000	0.000000	16.971194	-4.199926	-18.541011	-9.183052	-13.847105	7.983487	100.113874	82.662502	-3.516590	1.040931	-4.493995	-23.631139	15.887904	105.725901	77.880241	-7.118458	15.672326
2.916667	-5.092013	-6.528813	73.452015	0.238689	0.358076	0.967633	6.705154	-1.653050	-7.146881	10.182189	0.177713	30.369379	12.412185	0.000000	7.161556	0.380767	-2.173370	8.357038	0.145858	34.260451	2.335870	0.000000	0.191384	-0.069029	0.963189	0.355419	-0.091809	1.023388	0.314425	-0.167837	1.023388	0.218733	-0.167837	0.842790	0.177719	-0.140764	0.782591	0.109357	-0.106926	0.722392	1.367036	-0.780869	5.356967	0.000000	0.000000	17.197498	-4.174599	-18.745629	-9.287555	-13.702152	7.933128	100.181510	82.981810	-3.237022	1.102524	-4.659196	-24.087086	16.134923	105.892127	76.626401	-6.561870	16.308132
2.933333	-5.311252	-6.559071	73.036557	0.239274	0.357833	0.967326	6.861453	-1.843907	-7.007841	10.260675	0.179083	30.467711	12.729427	0.000000	7.022151	0.583343	-1.924806	8.007895	0.139764	33.867818	1.504450	0.000000	0.195316	-0.099424	1.033413	0.362722	-0.132234	1.098001	0.320885	-0.241739	1.098001	0.223227	-0.241739	0.904236	0.181371	-0.202745	0.839648	0.111604	-0.154007	0.775059	1.395124	-1.124702	5.747531	0.000000	0.000000	17.528392	-4.152933	-19.089040	-9.506426	-13.601850	7.835080	100.485475	83.428725	-3.008830	1.291967	-4.502050	-24.596952	16.824270	106.042642	74.241139	-5.670523	17.607613
2.950000	-5.549339	-6.619817	72.638580	0.239820	0.357565	0.967234	7.066283	-2.041616	-6.849109	10.334666	0.180374	30.538435	12.960632	0.000000	6.915701	0.810998	-1.472279	7.623513	0.133055	33.399198	0.425262	0.000000	0.198465	-0.132634	1.109451	0.368569	-0.176404	1.178792	0.326058	-0.322487	1.178792	0.226825	-0.322487	0.970769	0.184294	-0.270468	0.901429	0.113403	-0.205450	0.832088	1.417613	-1.500385	6.170433	0.000000	0.000000	17.965839	-4.087939	-19.387568	-9.710649	-13.518849	7.767796	100.894889	83.924058	-2.448490	1.877026	-4.091762	-25.120940	17.853749	106.078890	71.350966	-4.217034	18.994570
2.966667	-5.775687	-6.686897	72.276342	0.240316	0.357340	0.967360	7.276542	-2.215903	-6.628521	10.385786	0.181266	30.544475	13.024489	0.000000	6.837372	1.030209	-0.968553	7.263351	0.126769	32.921095	-0.690729	0.000000	0.198329	-0.165841	1.197919	0.368316	-0.220568	1.272789	0.325834	-0.403225	1.272789	0.226670	-0.403225	1.048179	0.184168	-0.338183	0.973309	0.113325	-0.256888	0.898439	1.416642	-1.876025	6.662464	0.000000	0.000000	18.414601	-4.006511	-19.722736	-9.876320	-13.467472	7.807404	101.254219	84.497545	-1.666157	2.516285	-3.333693	-25.669186	19.310734	105.875458	68.477133	-2.216765	20.162516
2.983333	-5.980206	-6.750180	71.969489	0.240756	0.357178	0.967687	7.474745	-2.360584	-6.356293	10.415214	0.181780	30.495726	12.922865	0.000000	6.781373	1.232886	-0.435509	6.944586	0.121206	32.459926	-1.796048	0.000000	0.195966	-0.197222	1.283028	0.363928	-0.262306	1.363217	0.321952	-0.479527	1.363217	0.223969	-0.479527	1.122649	0.181974	-0.402176	1.042460	0.111975	-0.305498	0.962271	1.399762	-2.231020	7.135815	0.000000	0.000000	18.836653	-3.894099	-19.973846	-9.913071	-13.442667	8.058951	101.438462	85.107732	-0.615848	3.359478	-2.313667	-26.211271	21.093809	105.392680	66.083868	0.129827	20.890017
